<?xml version="1.0" encoding="UTF-8" standalone="no"?>
<svg
   xmlns:dc="http://purl.org/dc/elements/1.1/"
   xmlns:cc="http://creativecommons.org/ns#"
   xmlns:rdf="http://www.w3.org/1999/02/22-rdf-syntax-ns#"
   xmlns:svg="http://www.w3.org/2000/svg"
   xmlns="http://www.w3.org/2000/svg"
   xmlns:sodipodi="http://sodipodi.sourceforge.net/DTD/sodipodi-0.dtd"
   xmlns:inkscape="http://www.inkscape.org/namespaces/inkscape"
   inkscape:export-ydpi="96"
   inkscape:export-xdpi="96"
   inkscape:export-filename="/Users/AlexLee/Documents/Dev/projects/CarLog/src/logo/car-log-appicon-foreground.png"
   version="1.1"
   width="108"
   height="108"
   viewBox="0 0 108 108"
   id="svg12"
   sodipodi:docname="booklover-appicon-foreground.svg"
   inkscape:version="1.0beta2 (2b71d25, 2019-12-03)">
  <metadata
     id="metadata18">
    <rdf:RDF>
      <cc:Work
         rdf:about="">
        <dc:format>image/svg+xml</dc:format>
        <dc:type
           rdf:resource="http://purl.org/dc/dcmitype/StillImage" />
        <dc:title />
      </cc:Work>
    </rdf:RDF>
  </metadata>
  <defs
     id="defs16" />
  <sodipodi:namedview
     pagecolor="#ffffff"
     bordercolor="#666666"
     inkscape:document-rotation="0"
     borderopacity="1"
     objecttolerance="10"
     gridtolerance="10"
     guidetolerance="10"
     inkscape:pageopacity="1"
     inkscape:pageshadow="2"
     inkscape:window-width="1766"
     inkscape:window-height="973"
     id="namedview14"
     showgrid="true"
     inkscape:zoom="7.1388889"
     inkscape:cx="63.028947"
     inkscape:cy="54"
     inkscape:window-x="151"
     inkscape:window-y="23"
     inkscape:window-maximized="0"
     inkscape:current-layer="layer1"
     inkscape:pagecheckerboard="false" />
  <g
     inkscape:groupmode="layer"
     id="layer4"
     inkscape:label="mask"
     style="display:none">
    <circle
       style="fill:#ffffff;fill-opacity:1;stroke:#000000;stroke-width:0.2;stroke-miterlimit:4;stroke-dasharray:none;stroke-opacity:1"
       id="path61"
       cx="53.731518"
       cy="53.653698"
       r="33" />
  </g>
  <g
     style="display:none"
     inkscape:groupmode="layer"
     id="layer2"
     inkscape:label="doc" />
  <g
     inkscape:groupmode="layer"
     id="layer1"
     inkscape:label="image"
     style="display:inline">
    <g
       style="font-size:26.6667px;line-height:1.25;font-family:'Helvetica Neue';-inkscape-font-specification:'Helvetica Neue';fill:#0000b3;fill-opacity:1"
       id="text959"
       aria-label="Book">
      <path
         d="m 24.351562,38.8125 v 19.039062 h 9.201172 c 0.942224,0 1.769357,-0.150902 2.480469,-0.453124 0.728889,-0.320001 1.332499,-0.728784 1.8125,-1.226563 0.497779,-0.515556 0.870251,-1.101987 1.119141,-1.759766 0.248888,-0.657778 0.375,-1.334009 0.375,-2.027343 0,-1.173335 -0.311371,-2.16855 -0.933594,-2.986328 -0.622223,-0.81778 -1.520025,-1.350721 -2.693359,-1.59961 v -0.05273 c 0.906668,-0.355556 1.600077,-0.898063 2.080078,-1.626953 0.497778,-0.746668 0.746093,-1.627291 0.746093,-2.640625 0,-0.960002 -0.22157,-1.768003 -0.666015,-2.425782 -0.426667,-0.657778 -0.951996,-1.173541 -1.574219,-1.546875 -0.284445,-0.177778 -0.630173,-0.311501 -1.039062,-0.40039 -0.391112,-0.08889 -0.819028,-0.151944 -1.28125,-0.1875 -0.462224,-0.05333 -0.93211,-0.08008 -1.41211,-0.08008 -0.462223,-0.01778 -0.897751,-0.02539 -1.30664,-0.02539 z m 48.667969,0 v 19.039062 h 2.265625 V 52.625 l 2.132813,-1.972656 4.720703,7.199218 h 2.880859 l -5.867187,-8.773437 5.466797,-5.011719 h -3.041016 l -6.292969,6.025391 V 38.8125 Z m -46.134765,2.132812 h 5.068359 c 0.551112,0 1.066874,0.03631 1.546875,0.107422 0.497779,0.05333 0.933307,0.185104 1.306641,0.398438 0.373334,0.213333 0.665573,0.517091 0.878906,0.908203 0.213334,0.391111 0.320312,0.924053 0.320312,1.599609 0,1.013335 -0.320936,1.777413 -0.960937,2.292969 -0.622223,0.497778 -1.651795,0.746094 -3.091797,0.746094 h -5.068359 z m 21.322265,2.800782 c -1.084446,0 -2.045302,0.18526 -2.880859,0.558594 -0.835556,0.373333 -1.536579,0.889096 -2.105469,1.546874 -0.568889,0.640002 -0.996805,1.404079 -1.28125,2.292969 -0.284445,0.871112 -0.425781,1.814791 -0.425781,2.828125 0,1.013335 0.141336,1.95506 0.425781,2.826172 0.284445,0.871112 0.712361,1.63519 1.28125,2.292969 0.56889,0.640001 1.269913,1.146198 2.105469,1.519531 0.835557,0.355556 1.796413,0.533203 2.880859,0.533203 1.102224,0 2.063081,-0.177647 2.88086,-0.533203 0.835556,-0.373333 1.536579,-0.87953 2.105468,-1.519531 0.56889,-0.657779 0.996805,-1.421857 1.28125,-2.292969 0.284445,-0.871112 0.425782,-1.812837 0.425782,-2.826172 0,-1.013334 -0.141337,-1.957013 -0.425782,-2.828125 -0.284445,-0.88889 -0.71236,-1.652967 -1.28125,-2.292969 -0.568889,-0.657778 -1.269912,-1.173541 -2.105468,-1.546874 -0.817779,-0.373334 -1.778636,-0.558594 -2.88086,-0.558594 z m 15.3125,0 c -1.084446,0 -2.045303,0.18526 -2.880859,0.558594 -0.835557,0.373333 -1.536579,0.889096 -2.105469,1.546874 -0.568889,0.640002 -0.996805,1.404079 -1.28125,2.292969 -0.284445,0.871112 -0.425781,1.814791 -0.425781,2.828125 0,1.013335 0.141336,1.95506 0.425781,2.826172 0.284445,0.871112 0.712361,1.63519 1.28125,2.292969 0.56889,0.640001 1.269912,1.146198 2.105469,1.519531 0.835556,0.355556 1.796413,0.533203 2.880859,0.533203 1.102224,0 2.063081,-0.177647 2.88086,-0.533203 0.835556,-0.373333 1.536579,-0.87953 2.105468,-1.519531 0.56889,-0.657779 0.996806,-1.421857 1.28125,-2.292969 0.284445,-0.871112 0.425782,-1.812837 0.425782,-2.826172 0,-1.013334 -0.141337,-1.957013 -0.425782,-2.828125 -0.284444,-0.88889 -0.71236,-1.652967 -1.28125,-2.292969 -0.568889,-0.657778 -1.269912,-1.173541 -2.105468,-1.546874 -0.817779,-0.373334 -1.778636,-0.558594 -2.88086,-0.558594 z m -15.3125,2 c 0.586668,0 1.136787,0.114592 1.652344,0.345703 0.533334,0.231111 0.995607,0.569227 1.386719,1.013672 0.391111,0.444445 0.694869,0.996518 0.908203,1.654297 0.231111,0.64 0.345703,1.377334 0.345703,2.21289 0,0.835557 -0.114592,1.582456 -0.345703,2.240235 -0.213334,0.64 -0.517092,1.180555 -0.908203,1.625 -0.391112,0.426667 -0.853385,0.75717 -1.386719,0.988281 -0.515557,0.231111 -1.065676,0.345703 -1.652344,0.345703 -0.586667,0 -1.146353,-0.114592 -1.679687,-0.345703 -0.515556,-0.231111 -0.970216,-0.561614 -1.361328,-0.988281 -0.391112,-0.444445 -0.70053,-0.985 -0.931641,-1.625 -0.213334,-0.657779 -0.320313,-1.404678 -0.320313,-2.240235 10e-7,-0.835556 0.106979,-1.57289 0.320313,-2.21289 0.231111,-0.657779 0.540529,-1.209852 0.931641,-1.654297 0.391112,-0.444445 0.845772,-0.782561 1.361328,-1.013672 0.533334,-0.231111 1.09302,-0.345703 1.679687,-0.345703 z m 15.3125,0 c 0.586668,0 1.136787,0.114592 1.652344,0.345703 0.533334,0.231111 0.995607,0.569227 1.386719,1.013672 0.391111,0.444445 0.694869,0.996518 0.908203,1.654297 0.231111,0.64 0.345703,1.377334 0.345703,2.21289 0,0.835557 -0.114592,1.582456 -0.345703,2.240235 -0.213334,0.64 -0.517092,1.180555 -0.908203,1.625 -0.391112,0.426667 -0.853385,0.75717 -1.386719,0.988281 -0.515557,0.231111 -1.065676,0.345703 -1.652344,0.345703 -0.586667,0 -1.146353,-0.114592 -1.679687,-0.345703 -0.515556,-0.231111 -0.968263,-0.561614 -1.359375,-0.988281 -0.391112,-0.444445 -0.702483,-0.985 -0.933594,-1.625 -0.213334,-0.657779 -0.320313,-1.404678 -0.320313,-2.240235 0,-0.835556 0.106979,-1.57289 0.320313,-2.21289 0.231111,-0.657779 0.542482,-1.209852 0.933594,-1.654297 0.391112,-0.444445 0.843819,-0.782561 1.359375,-1.013672 0.533334,-0.231111 1.09302,-0.345703 1.679687,-0.345703 z m -36.634765,3.386718 h 5.787109 c 0.533334,0 1.049096,0.05349 1.546875,0.160157 0.497779,0.08889 0.933307,0.25697 1.306641,0.505859 0.391112,0.231111 0.702482,0.552048 0.933593,0.960938 0.231112,0.408889 0.347657,0.922698 0.347657,1.544922 0,1.066667 -0.320937,1.903367 -0.960938,2.507812 -0.622223,0.604445 -1.49328,0.90625 -2.613281,0.90625 h -6.347656 z"
         inkscape:original="M 24.351562 38.8125 L 24.351562 57.851562 L 33.552734 57.851562 C 34.494958 57.851562 35.322091 57.70066 36.033203 57.398438 C 36.762092 57.078437 37.365702 56.669654 37.845703 56.171875 C 38.343482 55.656319 38.715954 55.069888 38.964844 54.412109 C 39.213732 53.754331 39.339844 53.0781 39.339844 52.384766 C 39.339844 51.211431 39.028473 50.216216 38.40625 49.398438 C 37.784027 48.580658 36.886225 48.047717 35.712891 47.798828 L 35.712891 47.746094 C 36.619559 47.390538 37.312968 46.848031 37.792969 46.119141 C 38.290747 45.372473 38.539062 44.49185 38.539062 43.478516 C 38.539062 42.518514 38.317492 41.710513 37.873047 41.052734 C 37.44638 40.394956 36.921051 39.879193 36.298828 39.505859 C 36.014383 39.328081 35.668655 39.194358 35.259766 39.105469 C 34.868654 39.01658 34.440738 38.953525 33.978516 38.917969 C 33.516292 38.864635 33.046406 38.837891 32.566406 38.837891 C 32.104183 38.820111 31.668655 38.8125 31.259766 38.8125 L 24.351562 38.8125 z M 73.019531 38.8125 L 73.019531 57.851562 L 75.285156 57.851562 L 75.285156 52.625 L 77.417969 50.652344 L 82.138672 57.851562 L 85.019531 57.851562 L 79.152344 49.078125 L 84.619141 44.066406 L 81.578125 44.066406 L 75.285156 50.091797 L 75.285156 38.8125 L 73.019531 38.8125 z M 26.884766 40.945312 L 31.953125 40.945312 C 32.504237 40.945312 33.019999 40.981623 33.5 41.052734 C 33.997779 41.106068 34.433307 41.237838 34.806641 41.451172 C 35.179975 41.664505 35.472214 41.968263 35.685547 42.359375 C 35.898881 42.750486 36.005859 43.283428 36.005859 43.958984 C 36.005859 44.972319 35.684923 45.736397 35.044922 46.251953 C 34.422699 46.749731 33.393127 46.998047 31.953125 46.998047 L 26.884766 46.998047 L 26.884766 40.945312 z M 48.207031 43.746094 C 47.122585 43.746094 46.161729 43.931354 45.326172 44.304688 C 44.490616 44.678021 43.789593 45.193784 43.220703 45.851562 C 42.651814 46.491564 42.223898 47.255641 41.939453 48.144531 C 41.655008 49.015643 41.513672 49.959322 41.513672 50.972656 C 41.513672 51.985991 41.655008 52.927716 41.939453 53.798828 C 42.223898 54.66994 42.651814 55.434018 43.220703 56.091797 C 43.789593 56.731798 44.490616 57.237995 45.326172 57.611328 C 46.161729 57.966884 47.122585 58.144531 48.207031 58.144531 C 49.309255 58.144531 50.270112 57.966884 51.087891 57.611328 C 51.923447 57.237995 52.62447 56.731798 53.193359 56.091797 C 53.762249 55.434018 54.190164 54.66994 54.474609 53.798828 C 54.759054 52.927716 54.900391 51.985991 54.900391 50.972656 C 54.900391 49.959322 54.759054 49.015643 54.474609 48.144531 C 54.190164 47.255641 53.762249 46.491564 53.193359 45.851562 C 52.62447 45.193784 51.923447 44.678021 51.087891 44.304688 C 50.270112 43.931354 49.309255 43.746094 48.207031 43.746094 z M 63.519531 43.746094 C 62.435085 43.746094 61.474228 43.931354 60.638672 44.304688 C 59.803115 44.678021 59.102093 45.193784 58.533203 45.851562 C 57.964314 46.491564 57.536398 47.255641 57.251953 48.144531 C 56.967508 49.015643 56.826172 49.959322 56.826172 50.972656 C 56.826172 51.985991 56.967508 52.927716 57.251953 53.798828 C 57.536398 54.66994 57.964314 55.434018 58.533203 56.091797 C 59.102093 56.731798 59.803115 57.237995 60.638672 57.611328 C 61.474228 57.966884 62.435085 58.144531 63.519531 58.144531 C 64.621755 58.144531 65.582612 57.966884 66.400391 57.611328 C 67.235947 57.237995 67.93697 56.731798 68.505859 56.091797 C 69.074749 55.434018 69.502665 54.66994 69.787109 53.798828 C 70.071554 52.927716 70.212891 51.985991 70.212891 50.972656 C 70.212891 49.959322 70.071554 49.015643 69.787109 48.144531 C 69.502665 47.255641 69.074749 46.491564 68.505859 45.851562 C 67.93697 45.193784 67.235947 44.678021 66.400391 44.304688 C 65.582612 43.931354 64.621755 43.746094 63.519531 43.746094 z M 48.207031 45.746094 C 48.793699 45.746094 49.343818 45.860686 49.859375 46.091797 C 50.392709 46.322908 50.854982 46.661024 51.246094 47.105469 C 51.637205 47.549914 51.940963 48.101987 52.154297 48.759766 C 52.385408 49.399766 52.5 50.1371 52.5 50.972656 C 52.5 51.808213 52.385408 52.555112 52.154297 53.212891 C 51.940963 53.852891 51.637205 54.393446 51.246094 54.837891 C 50.854982 55.264558 50.392709 55.595061 49.859375 55.826172 C 49.343818 56.057283 48.793699 56.171875 48.207031 56.171875 C 47.620364 56.171875 47.060678 56.057283 46.527344 55.826172 C 46.011788 55.595061 45.557128 55.264558 45.166016 54.837891 C 44.774904 54.393446 44.465486 53.852891 44.234375 53.212891 C 44.021041 52.555112 43.914062 51.808213 43.914062 50.972656 C 43.914063 50.1371 44.021041 49.399766 44.234375 48.759766 C 44.465486 48.101987 44.774904 47.549914 45.166016 47.105469 C 45.557128 46.661024 46.011788 46.322908 46.527344 46.091797 C 47.060678 45.860686 47.620364 45.746094 48.207031 45.746094 z M 63.519531 45.746094 C 64.106199 45.746094 64.656318 45.860686 65.171875 46.091797 C 65.705209 46.322908 66.167482 46.661024 66.558594 47.105469 C 66.949705 47.549914 67.253463 48.101987 67.466797 48.759766 C 67.697908 49.399766 67.8125 50.1371 67.8125 50.972656 C 67.8125 51.808213 67.697908 52.555112 67.466797 53.212891 C 67.253463 53.852891 66.949705 54.393446 66.558594 54.837891 C 66.167482 55.264558 65.705209 55.595061 65.171875 55.826172 C 64.656318 56.057283 64.106199 56.171875 63.519531 56.171875 C 62.932864 56.171875 62.373178 56.057283 61.839844 55.826172 C 61.324288 55.595061 60.871581 55.264558 60.480469 54.837891 C 60.089357 54.393446 59.777986 53.852891 59.546875 53.212891 C 59.333541 52.555112 59.226562 51.808213 59.226562 50.972656 C 59.226562 50.1371 59.333541 49.399766 59.546875 48.759766 C 59.777986 48.101987 60.089357 47.549914 60.480469 47.105469 C 60.871581 46.661024 61.324288 46.322908 61.839844 46.091797 C 62.373178 45.860686 62.932864 45.746094 63.519531 45.746094 z M 26.884766 49.132812 L 32.671875 49.132812 C 33.205209 49.132812 33.720971 49.186302 34.21875 49.292969 C 34.716529 49.381857 35.152057 49.549939 35.525391 49.798828 C 35.916503 50.029939 36.227873 50.350876 36.458984 50.759766 C 36.690096 51.168655 36.806641 51.682464 36.806641 52.304688 C 36.806641 53.371355 36.485704 54.208055 35.845703 54.8125 C 35.22348 55.416945 34.352423 55.71875 33.232422 55.71875 L 26.884766 55.71875 L 26.884766 49.132812 z "
         inkscape:radius="0"
         sodipodi:type="inkscape:offset"
         id="path967" />
    </g>
    <path
       style="stroke-width:1.20689;fill:#ce2a2a;fill-opacity:1"
       inkscape:connector-curvature="0"
       d="m 67.603275,80.036948 -0.120689,0.12069 -0.132758,-0.12069 c -5.732735,-5.201701 -9.522374,-8.641342 -9.522374,-12.129259 0,-2.413783 1.810337,-4.22412 4.22412,-4.22412 1.858613,0 3.66895,1.206891 4.308603,2.848264 h 2.244818 c 0.639653,-1.641373 2.44999,-2.848264 4.308603,-2.848264 2.413782,0 4.22412,1.810337 4.22412,4.22412 0,3.487917 -3.789639,6.927558 -9.534443,12.129259 m 5.310323,-18.767162 c -2.099991,0 -4.1155,0.977582 -5.431012,2.510335 -1.315511,-1.532753 -3.331021,-2.510335 -5.431012,-2.510335 -3.717226,0 -6.637903,2.908609 -6.637903,6.637903 0,4.549981 4.10343,8.279276 10.318922,13.915459 l 1.749993,1.593097 1.749992,-1.593097 c 6.215492,-5.636183 10.318923,-9.365478 10.318923,-13.915459 0,-3.729294 -2.920678,-6.637903 -6.637903,-6.637903 z"
       id="path946" />
  </g>
</svg>
